HIERARCHY
ROOT mPelvis
{
	OFFSET 0.000000 1.067000 -0.000000
	CHANNELS 6 Xposition Yposition Zposition Xrotation Yrotation Zrotation
	JOINT mTorso
	{
		OFFSET 0.000000 0.084000 -0.000000
		CHANNELS 3 Xrotation Yrotation Zrotation
		JOINT mChest
		{
			OFFSET 0.000000 0.205000 -0.015000
			CHANNELS 3 Xrotation Yrotation Zrotation
			JOINT mNeck
			{
				OFFSET 0.000000 0.251000 -0.010000
				CHANNELS 3 Xrotation Yrotation Zrotation
				JOINT mHead
				{
					OFFSET 0.000000 0.076000 0.000000
					CHANNELS 3 Xrotation Yrotation Zrotation
					JOINT mSkull
					{
						OFFSET 0.000000 0.079000 0.000000
						CHANNELS 3 Xrotation Yrotation Zrotation
						End Site
						{
							OFFSET -0.000000 -0.100000 0.000000
						}
					}
					JOINT mEyeRight
					{
						OFFSET -0.036000 0.079000 0.098000
						CHANNELS 3 Xrotation Yrotation Zrotation
						End Site
						{
							OFFSET -0.000000 -0.100000 0.000000
						}
					}
					JOINT mEyeLeft
					{
						OFFSET 0.036000 0.079000 0.098000
						CHANNELS 3 Xrotation Yrotation Zrotation
						End Site
						{
							OFFSET -0.000000 -0.100000 0.000000
						}
					}
					JOINT HEAD
					{
						OFFSET 0.000000 0.070000 0.020000
						CHANNELS 3 Xrotation Yrotation Zrotation
						End Site
						{
							OFFSET -0.000000 -0.100000 0.000000
						}
					}
				}
				JOINT NECK
				{
					OFFSET 0.000000 0.020000 0.000000
					CHANNELS 3 Xrotation Yrotation Zrotation
					End Site
					{
						OFFSET -0.000000 -0.100000 0.000000
					}
				}
			}
			JOINT mCollarLeft
			{
				OFFSET 0.085000 0.165000 -0.021000
				CHANNELS 3 Xrotation Yrotation Zrotation
				JOINT mShoulderLeft
				{
					OFFSET 0.079000 0.000000 -0.000000
					CHANNELS 3 Xrotation Yrotation Zrotation
					JOINT mElbowLeft
					{
						OFFSET 0.248000 0.000000 -0.000000
						CHANNELS 3 Xrotation Yrotation Zrotation
						JOINT mWristLeft
						{
							OFFSET 0.205000 0.000000 -0.000000
							CHANNELS 3 Xrotation Yrotation Zrotation
							JOINT L_HAND
							{
								OFFSET 0.050000 0.000000 0.010000
								CHANNELS 3 Xrotation Yrotation Zrotation
								End Site
								{
									OFFSET 0.000000 -0.100000 0.000000
								}
							}
						}
						JOINT L_LOWER_ARM
						{
							OFFSET 0.100000 0.000000 -0.000000
							CHANNELS 3 Xrotation Yrotation Zrotation
							End Site
							{
								OFFSET 0.000000 -0.100000 0.000000
							}
						}
					}
					JOINT L_UPPER_ARM
					{
						OFFSET 0.120000 0.010000 -0.000000
						CHANNELS 3 Xrotation Yrotation Zrotation
						End Site
						{
							OFFSET 0.000000 -0.100000 0.000000
						}
					}
				}
				JOINT L_CLAVICLE
				{
					OFFSET 0.000000 0.020000 0.020000
					CHANNELS 3 Xrotation Yrotation Zrotation
					End Site
					{
						OFFSET -0.000000 -0.100000 0.000000
					}
				}
			}
			JOINT mCollarRight
			{
				OFFSET -0.085000 0.165000 -0.021000
				CHANNELS 3 Xrotation Yrotation Zrotation
				JOINT mShoulderRight
				{
					OFFSET -0.079000 0.000000 0.000000
					CHANNELS 3 Xrotation Yrotation Zrotation
					JOINT mElbowRight
					{
						OFFSET -0.248000 0.000000 0.000000
						CHANNELS 3 Xrotation Yrotation Zrotation
						JOINT mWristRight
						{
							OFFSET -0.205000 0.000000 0.000000
							CHANNELS 3 Xrotation Yrotation Zrotation
							JOINT R_HAND
							{
								OFFSET -0.050000 0.000000 0.010000
								CHANNELS 3 Xrotation Yrotation Zrotation
								End Site
								{
									OFFSET 0.000000 -0.100000 0.000000
								}
							}
						}
						JOINT R_LOWER_ARM
						{
							OFFSET -0.100000 0.000000 0.000000
							CHANNELS 3 Xrotation Yrotation Zrotation
							End Site
							{
								OFFSET 0.000000 -0.100000 0.000000
							}
						}
					}
					JOINT R_UPPER_ARM
					{
						OFFSET -0.120000 0.010000 0.000000
						CHANNELS 3 Xrotation Yrotation Zrotation
						End Site
						{
							OFFSET 0.000000 -0.100000 0.000000
						}
					}
				}
				JOINT R_CLAVICLE
				{
					OFFSET 0.000000 0.020000 0.020000
					CHANNELS 3 Xrotation Yrotation Zrotation
					End Site
					{
						OFFSET -0.000000 -0.100000 0.000000
					}
				}
			}
			JOINT CHEST
			{
				OFFSET 0.000000 0.070000 0.028000
				CHANNELS 3 Xrotation Yrotation Zrotation
				End Site
				{
					OFFSET -0.000000 -0.100000 0.000000
				}
			}
			JOINT LEFT_PEC
			{
				OFFSET 0.082000 0.042000 0.119000
				CHANNELS 3 Xrotation Yrotation Zrotation
				End Site
				{
					OFFSET 0.000000 -0.100000 0.000000
				}
			}
			JOINT RIGHT_PEC
			{
				OFFSET -0.082000 0.042000 0.119000
				CHANNELS 3 Xrotation Yrotation Zrotation
				End Site
				{
					OFFSET 0.000000 -0.100000 0.000000
				}
			}
			JOINT UPPER_BACK
			{
				OFFSET 0.000000 0.017253 0.000000
				CHANNELS 3 Xrotation Yrotation Zrotation
				End Site
				{
					OFFSET -0.000000 -0.100000 0.000000
				}
			}
		}
		JOINT BELLY
		{
			OFFSET 0.000000 0.040000 0.028000
			CHANNELS 3 Xrotation Yrotation Zrotation
			End Site
			{
				OFFSET -0.000000 -0.100000 0.000000
			}
		}
		JOINT LOWER_BACK
		{
			OFFSET 0.000000 0.022848 -0.000000
			CHANNELS 3 Xrotation Yrotation Zrotation
			End Site
			{
				OFFSET -0.000000 -0.100000 0.000000
			}
		}
	}
	JOINT mHipRight
	{
		OFFSET -0.129000 -0.041000 0.034000
		CHANNELS 3 Xrotation Yrotation Zrotation
		JOINT mKneeRight
		{
			OFFSET 0.049000 -0.491000 -0.001000
			CHANNELS 3 Xrotation Yrotation Zrotation
			JOINT mAnkleRight
			{
				OFFSET -0.000000 -0.468000 -0.029000
				CHANNELS 3 Xrotation Yrotation Zrotation
				JOINT mFootRight
				{
					OFFSET 0.000000 -0.061000 0.112000
					CHANNELS 3 Xrotation Yrotation Zrotation
					JOINT mToeRight
					{
						OFFSET 0.000000 0.000000 0.109000
						CHANNELS 3 Xrotation Yrotation Zrotation
						End Site
						{
							OFFSET -0.000000 -0.100000 0.000000
						}
					}
				}
				JOINT R_FOOT
				{
					OFFSET 0.000000 -0.041000 0.077000
					CHANNELS 3 Xrotation Yrotation Zrotation
					End Site
					{
						OFFSET 0.000000 -0.100000 0.000000
					}
				}
			}
			JOINT R_LOWER_LEG
			{
				OFFSET -0.000000 -0.200000 -0.020000
				CHANNELS 3 Xrotation Yrotation Zrotation
				End Site
				{
					OFFSET -0.000000 -0.100000 0.000000
				}
			}
		}
		JOINT R_UPPER_LEG
		{
			OFFSET 0.050000 -0.220000 -0.020000
			CHANNELS 3 Xrotation Yrotation Zrotation
			End Site
			{
				OFFSET -0.000000 -0.100000 0.000000
			}
		}
	}
	JOINT mHipLeft
	{
		OFFSET 0.127000 -0.041000 0.034000
		CHANNELS 3 Xrotation Yrotation Zrotation
		JOINT mKneeLeft
		{
			OFFSET -0.046000 -0.491000 -0.001000
			CHANNELS 3 Xrotation Yrotation Zrotation
			JOINT mAnkleLeft
			{
				OFFSET 0.001000 -0.468000 -0.029000
				CHANNELS 3 Xrotation Yrotation Zrotation
				JOINT mFootLeft
				{
					OFFSET 0.000000 -0.061000 0.112000
					CHANNELS 3 Xrotation Yrotation Zrotation
					JOINT mToeLeft
					{
						OFFSET 0.000000 0.000000 0.109000
						CHANNELS 3 Xrotation Yrotation Zrotation
						End Site
						{
							OFFSET -0.000000 -0.100000 0.000000
						}
					}
				}
				JOINT L_FOOT
				{
					OFFSET 0.000000 -0.041000 0.077000
					CHANNELS 3 Xrotation Yrotation Zrotation
					End Site
					{
						OFFSET 0.000000 -0.100000 0.000000
					}
				}
			}
			JOINT L_LOWER_LEG
			{
				OFFSET -0.000000 -0.200000 -0.020000
				CHANNELS 3 Xrotation Yrotation Zrotation
				End Site
				{
					OFFSET -0.000000 -0.100000 0.000000
				}
			}
		}
		JOINT L_UPPER_LEG
		{
			OFFSET -0.050000 -0.220000 -0.020000
			CHANNELS 3 Xrotation Yrotation Zrotation
			End Site
			{
				OFFSET -0.000000 -0.100000 0.000000
			}
		}
	}
	JOINT PELVIS
	{
		OFFSET -0.000000 -0.020000 -0.010000
		CHANNELS 3 Xrotation Yrotation Zrotation
		End Site
		{
			OFFSET -0.000000 -0.100000 0.000000
		}
	}
	JOINT BUTT
	{
		OFFSET -0.000000 -0.100000 -0.060000
		CHANNELS 3 Xrotation Yrotation Zrotation
		End Site
		{
			OFFSET -0.000000 -0.100000 0.000000
		}
	}
}
MOTION
Frames: 4
Frame Time: 0.022222
0.000000 0.977329 0.000000 0.027776 -0.000000 -0.000000 -0.024691 -0.037267 0.006440 -0.032209 -0.016424 -0.001196 16.948780 0.044755 -0.014208 11.926562 -0.000002 -0.000002 0.000001 0.000022 -179.999991 -0.000001 0.000000 0.000000 -0.000001 0.000000 0.000000 -0.000001 0.000000 0.000000 -0.000001 -0.000000 -0.000000 -0.009784 17.700031 0.117193 -0.926450 -0.002482 -83.780849 -0.000001 -0.040858 0.000000 0.915208 -0.117451 -4.403248 0.000000 -0.000003 -0.000000 0.000000 -0.000000 0.000001 0.000002 -0.000000 0.000000 -0.000000 0.000000 0.000000 -0.028615 -20.080273 -0.122262 -1.879154 15.135839 81.809445 -0.000001 0.040858 -0.000001 1.037740 0.132069 5.214112 -0.000000 -0.000002 0.000000 0.000000 -0.000000 0.000000 -0.000001 0.000000 -0.000001 -0.000000 0.000001 -0.000000 0.000000 0.000000 -0.000000 0.000000 0.000000 -0.000000 0.000000 0.000000 -0.000000 0.000000 0.000000 -0.000000 -0.000000 -0.000000 -0.000000 -0.000000 -0.000000 -0.000000 -0.060280 -0.006016 0.000108 0.367269 0.001338 -0.022582 0.266630 0.017530 -0.017167 -0.000004 0.000015 -0.000027 0.000000 0.000000 0.000000 -0.000005 0.000015 -0.000027 -0.000002 -0.000000 0.000000 -0.000000 0.000003 0.000137 -0.059286 0.005554 0.000136 0.366724 0.002116 -0.022740 0.266438 0.022234 -0.016469 0.000009 -0.000013 0.000025 0.000000 0.000000 0.000000 0.000010 -0.000014 0.000025 -0.000000 0.000001 0.000000 0.000000 0.000002 -0.000100 -0.000000 -0.000000 -0.000000 -0.000000 -0.000000 -0.000000 
0.000000 0.717756 0.000000 0.108184 -0.000000 -0.000000 -0.096148 -0.145168 0.024991 -0.125449 -0.063963 -0.004709 17.491971 0.174049 -0.056153 12.554944 -0.000002 -0.000002 0.000004 0.000022 -179.999991 0.000002 0.000000 0.000000 0.000002 0.000000 0.000000 0.000002 0.000000 -0.000000 -0.000000 0.000000 -0.000000 -0.037726 17.602912 0.456765 -2.016273 0.147078 -82.852524 -0.000003 -0.159138 -0.000000 1.017540 -0.359583 -4.402193 0.000001 -0.000001 0.000000 0.000000 -0.000000 0.000001 -0.000003 0.000000 0.000001 0.000000 -0.000002 -0.000000 -0.110938 -19.945635 -0.476378 -2.872088 14.974929 81.008543 0.000001 0.159138 0.000000 1.013909 0.375962 5.147388 -0.000000 0.000001 -0.000000 -0.000000 -0.000000 0.000001 0.000001 -0.000000 0.000000 0.000000 -0.000003 0.000000 0.000000 -0.000000 0.000000 0.000000 -0.000000 0.000000 -0.000000 -0.000000 0.000000 0.000000 -0.000000 0.000000 -0.000000 -0.000000 0.000000 -0.000000 -0.000000 -0.000000 -0.234796 -0.023433 0.000385 1.436273 0.004396 -0.088751 1.040545 0.067955 -0.067449 -0.000012 0.000014 -0.000029 0.000000 0.000000 0.000000 -0.000012 0.000014 -0.000027 -0.000001 0.000000 0.000000 -0.000000 0.000003 0.000136 -0.230925 0.021632 0.000559 1.434125 0.007441 -0.088708 1.039792 0.086328 -0.064859 0.000007 -0.000011 0.000026 0.000000 0.000000 -0.000000 0.000006 -0.000012 0.000026 -0.000001 0.000000 0.000000 0.000000 0.000002 -0.000100 -0.000000 -0.000000 0.000000 -0.000000 -0.000000 0.000000 
0.000000 0.302438 0.000000 0.236843 -0.000000 -0.000000 -0.210422 -0.317879 0.054398 -0.274652 -0.140022 -0.010492 17.992906 0.380495 -0.124593 13.162620 -0.000002 -0.000002 0.000004 0.000022 -179.999991 0.000000 -0.000000 0.000000 0.000000 -0.000000 0.000000 0.000000 -0.000000 0.000000 -0.000001 -0.000000 -0.000000 -0.081129 17.437116 1.000526 -3.812265 0.354393 -81.321175 0.000002 -0.348407 0.000001 1.181377 -0.747194 -4.399607 -0.000000 -0.000001 -0.000000 0.000002 -0.000000 -0.000000 -0.000000 -0.000000 0.000001 0.000000 -0.000002 -0.000000 -0.240789 -19.717288 -1.042920 -4.507044 14.739719 79.687749 -0.000000 0.348407 -0.000001 0.976351 0.766445 5.040775 -0.000000 0.000001 -0.000000 -0.000000 0.000000 -0.000001 0.000000 -0.000001 -0.000000 0.000000 -0.000002 -0.000000 0.000000 -0.000000 -0.000000 0.000000 -0.000000 -0.000000 0.000000 -0.000000 -0.000000 0.000000 -0.000000 -0.000000 0.000000 -0.000001 -0.000000 0.000000 -0.000001 -0.000000 -0.514088 -0.051309 0.000718 3.164618 0.006726 -0.195817 2.285084 0.147601 -0.149715 -0.000006 0.000013 -0.000026 0.000000 -0.000000 0.000000 -0.000006 0.000013 -0.000026 -0.000001 0.000000 -0.000000 -0.000000 0.000003 0.000136 -0.505611 0.047361 0.001339 3.159815 0.013448 -0.195534 2.283463 0.187999 -0.144461 0.000007 -0.000010 0.000023 0.000000 -0.000000 0.000000 0.000007 -0.000011 0.000021 -0.000000 0.000001 0.000000 0.000000 0.000002 -0.000100 -0.000000 -0.000000 0.000000 -0.000000 -0.000000 0.000000 
0.000000 -0.254465 0.000000 0.409374 -0.000000 -0.000000 -0.363546 -0.549602 0.093298 -0.474758 -0.241997 -0.018558 18.453645 0.656809 -0.217999 13.749203 -0.000002 -0.000002 0.000004 0.000022 -179.999991 0.000001 0.000000 -0.000000 0.000001 0.000000 -0.000000 0.000001 0.000000 0.000000 0.000000 -0.000000 -0.000000 -0.136692 17.208141 1.730053 -6.322457 0.562870 -79.178319 0.000001 -0.602235 -0.000000 1.401283 -1.267312 -4.394392 0.000001 -0.000001 -0.000001 0.000000 0.000001 0.000000 -0.000001 0.000000 0.000000 -0.000000 -0.000001 0.000000 -0.411079 -19.401943 -1.801988 -6.790314 14.473070 77.839588 0.000001 0.602235 0.000001 0.927088 1.290514 4.898108 0.000000 0.000001 -0.000001 -0.000000 0.000000 0.000001 -0.000000 -0.000000 0.000002 0.000000 -0.000003 0.000000 0.000000 0.000000 -0.000000 -0.000000 0.000000 -0.000000 -0.000000 0.000000 -0.000000 0.000000 0.000000 -0.000000 0.000000 0.000000 -0.000000 0.000000 0.000000 -0.000000 -0.888714 -0.088702 0.000952 5.516222 0.004710 -0.341508 3.965682 0.252268 -0.263503 -0.000008 0.000015 -0.000022 -0.000000 -0.000000 0.000000 -0.000008 0.000015 -0.000022 -0.000001 0.000001 -0.000000 -0.000000 0.000003 0.000136 -0.874055 0.081865 0.002578 5.507689 0.016451 -0.341069 3.962953 0.322492 -0.255414 0.000011 -0.000009 0.000020 0.000001 -0.000000 0.000000 0.000010 -0.000010 0.000020 -0.000001 0.000001 0.000000 0.000000 0.000002 -0.000099 -0.000000 -0.000000 0.000000 -0.000000 -0.000000 0.000000 
